<?xml version="1.0" encoding="utf-8"?>
<!-- Generator: Adobe Illustrator 26.0.3, SVG Export Plug-In . SVG Version: 6.00 Build 0)  -->
<svg version="1.1" id="GoChapaa_x5F_Master_Logo_x5F_Green_x26_Navy_x5F_RGB"
	 xmlns="http://www.w3.org/2000/svg" xmlns:xlink="http://www.w3.org/1999/xlink" x="0px" y="0px" viewBox="0 0 1000 240"
	 style="enable-background:new 0 0 1000 240;" xml:space="preserve">
<style type="text/css">
	.st0{fill:#081549;}
	.st1{fill:#18C687;}
</style>
<g>
	<path class="st0" d="M469.35,82.12c5.92,3.32,10.54,8.22,13.87,14.69c3.32,6.47,4.99,14.23,4.99,23.3v58.93h-25.38v-55.48
		c0-7.98-1.99-14.11-5.98-18.4c-3.99-4.29-9.43-6.44-16.32-6.44c-7.01,0-12.54,2.15-16.59,6.44c-4.05,4.29-6.07,10.42-6.07,18.4
		v55.48h-25.38V46.49h25.38v45.37c3.26-4.35,7.62-8.53,13.06-11.01c5.44-2.48,11.48-3.72,18.13-3.72
		C456.65,77.13,463.42,78.79,469.35,82.12z"/>
	<path class="st0" d="M509.64,101.31c4.05-7.86,9.55-13.9,16.5-18.13c6.95-4.23,14.72-6.35,23.3-6.35c7.49,0,14.05,1.51,19.67,4.53
		c5.62,3.02,10.12,7.59,13.51,12.19V78.47h25.57v100.45h-25.57v-15.45c-3.26,4.71-7.77,9.38-13.51,12.46
		c-5.74,3.08-12.36,4.62-19.85,4.62c-8.46,0-16.17-2.18-23.12-6.53c-6.95-4.35-12.45-10.49-16.5-18.41
		c-4.05-7.91-6.07-17.01-6.07-27.29C503.56,118.17,505.59,109.17,509.64,101.31z M578.99,112.82c-2.42-4.41-5.68-7.8-9.79-10.15
		c-4.11-2.36-8.52-3.54-13.24-3.54c-4.71,0-9.07,1.15-13.06,3.45c-3.99,2.3-7.22,5.65-9.7,10.06c-2.48,4.41-3.72,9.64-3.72,15.68
		c0,6.05,1.24,11.33,3.72,15.86c2.48,4.53,5.74,8.01,9.79,10.43c4.05,2.42,8.37,3.62,12.96,3.62c4.71,0,9.13-1.18,13.24-3.53
		c4.11-2.36,7.37-5.74,9.79-10.15c2.42-4.41,3.63-9.7,3.63-15.86C582.62,122.53,581.41,117.24,578.99,112.82z"/>
	<path class="st0" d="M668.93,81.46c5.74-3.08,12.3-4.62,19.67-4.62c8.58,0,16.35,2.12,23.3,6.35c6.95,4.23,12.45,10.24,16.5,18.04
		c4.05,7.8,6.07,16.83,6.07,27.11c0,10.27-2.03,19.37-6.07,27.29c-4.05,7.92-9.55,14.05-16.5,18.41c-6.95,4.35-14.72,6.53-23.3,6.53
		c-7.38,0-13.87-1.51-19.49-4.53c-5.62-3.02-10.19-7.59-13.69-12.19v52.34h-25.38V78.47h25.38v15.27
		C658.68,89.14,663.19,84.54,668.93,81.46z M704.83,112.65c-2.48-4.41-5.74-7.77-9.79-10.06c-4.05-2.29-8.43-3.45-13.14-3.45
		c-4.6,0-8.92,1.18-12.96,3.54c-4.05,2.36-7.32,5.77-9.79,10.24c-2.48,4.47-3.72,9.73-3.72,15.78c0,6.04,1.24,11.3,3.72,15.77
		c2.48,4.47,5.74,7.89,9.79,10.25c4.05,2.36,8.37,3.53,12.96,3.53c4.71,0,9.09-1.21,13.14-3.62c4.05-2.42,7.31-5.86,9.79-10.34
		c2.48-4.47,3.72-9.79,3.72-15.96C708.55,122.29,707.31,117.06,704.83,112.65z"/>
	<path class="st0" d="M752.49,101.31c4.05-7.86,9.55-13.9,16.5-18.13c6.95-4.23,14.72-6.35,23.3-6.35c7.49,0,14.05,1.51,19.67,4.53
		c5.62,3.02,10.12,7.59,13.51,12.19V78.47h25.57v100.45h-25.57v-15.45c-3.26,4.71-7.77,9.38-13.51,12.46
		c-5.74,3.08-12.36,4.62-19.85,4.62c-8.46,0-16.17-2.18-23.12-6.53c-6.95-4.35-12.45-10.49-16.5-18.41
		c-4.05-7.91-6.07-17.01-6.07-27.29C746.41,118.17,748.44,109.17,752.49,101.31z M821.84,112.82c-2.42-4.41-5.68-7.8-9.79-10.15
		c-4.11-2.36-8.52-3.54-13.24-3.54c-4.71,0-9.07,1.15-13.06,3.45c-3.99,2.3-7.22,5.65-9.7,10.06c-2.48,4.41-3.72,9.64-3.72,15.68
		c0,6.05,1.24,11.33,3.72,15.86c2.48,4.53,5.74,8.01,9.79,10.43c4.05,2.42,8.37,3.62,12.96,3.62c4.71,0,9.13-1.18,13.24-3.53
		c4.11-2.36,7.37-5.74,9.79-10.15c2.42-4.41,3.63-9.7,3.63-15.86C825.47,122.53,824.26,117.24,821.84,112.82z"/>
	<path class="st0" d="M872.47,101.31c4.05-7.86,9.55-13.9,16.5-18.13c6.95-4.23,14.72-6.35,23.3-6.35c7.49,0,14.05,1.51,19.67,4.53
		c5.62,3.02,10.12,7.59,13.51,12.19V78.47h25.57v100.45h-25.57v-15.45c-3.26,4.71-7.77,9.38-13.51,12.46
		c-5.74,3.08-12.36,4.62-19.85,4.62c-8.46,0-16.17-2.18-23.12-6.53c-6.95-4.35-12.45-10.49-16.5-18.41
		c-4.05-7.91-6.07-17.01-6.07-27.29C866.39,118.17,868.42,109.17,872.47,101.31z M941.82,112.82c-2.42-4.41-5.68-7.8-9.79-10.15
		c-4.11-2.36-8.52-3.54-13.24-3.54c-4.71,0-9.07,1.15-13.06,3.45c-3.99,2.3-7.22,5.65-9.7,10.06c-2.48,4.41-3.72,9.64-3.72,15.68
		c0,6.05,1.24,11.33,3.72,15.86c2.48,4.53,5.74,8.01,9.79,10.43c4.05,2.42,8.37,3.62,12.96,3.62c4.71,0,9.13-1.18,13.24-3.53
		c4.11-2.36,7.37-5.74,9.79-10.15c2.42-4.41,3.63-9.7,3.63-15.86C945.45,122.53,944.24,117.24,941.82,112.82z"/>
	<g>
		<path class="st0" d="M133.57,59.38c-10.9-7.43-24.35-11.14-38.84-11.14c-12.38,0-23.56,2.82-33.52,8.45
			c-9.97,5.64-17.83,13.5-23.59,23.59s-8.64,21.52-8.64,34.26c0,12.75,2.88,24.15,8.64,34.17c5.76,10.03,13.62,17.86,23.59,23.5
			c9.97,5.64,20.95,8.45,33.34,8.45v-23.22c-7.55,0-14.27-1.77-20.15-5.3c-5.88-3.53-10.46-8.54-13.74-15.04
			c-3.28-6.5-4.92-14.02-4.92-22.57c0-8.66,1.64-16.22,4.92-22.66c3.28-6.44,7.86-11.42,13.74-14.95c5.88-3.53,12.6-5.3,20.15-5.3
			c7.06,0,14.04,1.55,19.43,4.64c5.39,3.1,9.56,7.74,12.54,13.93l23.6-13.62C145.87,69.75,140.36,64.01,133.57,59.38z"/>
	</g>
	<g>
		<path class="st0" d="M344.61,152.69c-5.39,3.16-11.62,4.74-18.68,4.74c-7.56,0-14.28-1.77-20.17-5.3
			c-5.89-3.53-10.47-8.55-13.76-15.06c-3.29-6.51-4.93-14.03-4.93-22.59c0-8.67,1.64-16.23,4.93-22.68
			c3.28-6.44,7.87-11.43,13.76-14.96c5.88-3.53,12.61-5.3,20.17-5.3c7.06,0,13.29,1.55,18.68,4.65c5.39,3.1,9.57,7.75,12.55,13.94
			l23.3-14.1c-4.2-6.64-9.61-12.23-16.24-16.76c-10.91-7.44-23.61-11.15-38.11-11.15c-12.39,0-23.58,2.82-33.55,8.46
			c-9.98,5.64-17.85,13.51-23.61,23.61s-8.64,21.53-8.64,34.3c0,12.77,2.88,24.17,8.64,34.2c5.76,10.04,13.63,17.88,23.61,23.52
			c9.97,5.64,21.16,8.46,33.55,8.46c14.62,0,27.36-3.69,38.2-11.06c6.62-4.5,12.01-10.12,16.21-16.81l-23.36-14.14
			C354.19,144.85,350.01,149.52,344.61,152.69z"/>
	</g>
	<path class="st1" d="M103.59,115.92v21.85h33.49c0.04,13.93-17.34,39.4-42.54,42.89v23.22c17.21-0.23,46.22-19.04,54.82-42.66
		l0,26.48h21.85v-71.77H103.59z"/>
	<path class="st1" d="M208.55,35.84c-23.62,0-42.76,19.14-42.76,42.76c0,23.62,19.14,42.76,42.76,42.76
		c23.62,0,42.76-19.14,42.76-42.76C251.31,54.98,232.16,35.84,208.55,35.84z M208.55,99.49c-11.54,0-20.89-9.35-20.89-20.89
		c0-11.54,9.35-20.89,20.89-20.89c11.54,0,20.89,9.35,20.89,20.89C229.44,90.14,220.09,99.49,208.55,99.49z"/>
</g>
</svg>
