<?xml version="1.0" encoding="utf-8"?>
<!-- Generator: Adobe Illustrator 26.0.3, SVG Export Plug-In . SVG Version: 6.00 Build 0)  -->
<svg version="1.1" id="GoChapaa_x5F_Logomark_x5F_Green_x26_Navy_x5F_RGB"
	 xmlns="http://www.w3.org/2000/svg" xmlns:xlink="http://www.w3.org/1999/xlink" x="0px" y="0px" viewBox="0 0 500 500"
	 style="enable-background:new 0 0 500 500;" xml:space="preserve">
<style type="text/css">
	.st0{fill:#081549;}
	.st1{fill:#18C687;}
</style>
<g>
	<g>
		<path class="st0" d="M243.09,146.81c-21.2-14.45-47.38-21.68-75.57-21.68c-24.09,0-45.84,5.48-65.23,16.44
			c-19.4,10.96-34.69,26.26-45.9,45.9s-16.81,41.86-16.81,66.67c0,24.82,5.6,46.98,16.81,66.5c11.2,19.52,26.5,34.76,45.9,45.72
			c19.39,10.96,40.77,16.44,64.87,16.44v-45.17c-14.7,0-27.77-3.44-39.21-10.3c-11.45-6.86-20.36-16.62-26.74-29.27
			c-6.39-12.65-9.58-27.28-9.58-43.91c0-16.86,3.19-31.56,9.58-44.09c6.38-12.53,15.3-22.23,26.74-29.09
			c11.44-6.87,24.51-10.3,39.21-10.3c13.73,0,27.33,3.01,37.81,9.03c10.48,6.03,18.61,15.06,24.4,27.11l45.92-26.51
			C267.02,166.98,256.3,155.81,243.09,146.81z"/>
	</g>
	<path class="st1" d="M184.75,256.82v42.51h65.17c0.07,27.1-33.73,76.66-82.76,83.46v45.17c33.49-0.45,89.93-37.05,106.67-83.02
		l0.01,51.52h42.51V256.82H184.75z"/>
	<path class="st1" d="M388.98,100.99c-45.95,0-83.2,37.25-83.2,83.2c0,45.95,37.25,83.2,83.2,83.2c45.95,0,83.2-37.25,83.2-83.2
		C472.18,138.24,434.93,100.99,388.98,100.99z M388.98,224.85c-22.45,0-40.66-18.2-40.66-40.66c0-22.45,18.2-40.66,40.66-40.66
		c22.45,0,40.66,18.2,40.66,40.66C429.63,206.65,411.43,224.85,388.98,224.85z"/>
</g>
</svg>
