<svg width="200" height="60" viewBox="0 0 200 60" xmlns="http://www.w3.org/2000/svg">
  <!-- GoChapaa Logo -->
  
  <!-- The "Go" part with stylized G and arrow -->
  <g>
    <!-- Stylized G in dark blue -->
    <path d="M15 45 C15 25, 25 15, 40 15 C55 15, 65 25, 65 35 C65 40, 62 44, 58 46 L58 50 C62 48, 65 44, 65 40 C65 28, 55 20, 40 20 C25 20, 20 30, 20 40 C20 50, 25 55, 35 55 C40 55, 45 53, 48 50" 
          fill="#1e3a8a" stroke="none"/>
    
    <!-- Arrow extending from G in bright green -->
    <path d="M48 50 L75 25 L70 20 L43 45 Z" fill="#10b981"/>
    <path d="M75 25 L85 25 L85 30 L80 30 L80 27 L75 25 Z" fill="#10b981"/>
    
    <!-- The "o" in bright green -->
    <circle cx="90" cy="35" r="12" fill="#10b981"/>
    <circle cx="90" cy="35" r="7" fill="white"/>
  </g>
  
  <!-- "Chapaa" text in dark blue -->
  <text x="110" y="42" font-family="Arial, sans-serif" font-size="24" font-weight="600" fill="#1e3a8a">chapaa</text>
</svg>